HIERARCHY
ROOT Hips
{
    OFFSET 0.000000 0.000000 0.000000
    CHANNELS 6 Xposition Yposition Zposition Zrotation Xrotation Yrotation
    JOINT Spine
    {
        OFFSET -0.000000 0.081343 0.000000
        CHANNELS 3 Zrotation Xrotation Yrotation
        JOINT Spine1
        {
            OFFSET -0.000000 0.243280 0.000000
            CHANNELS 3 Zrotation Xrotation Yrotation
            JOINT Neck
            {
                OFFSET -0.000000 0.242281 0.022026
                CHANNELS 3 Zrotation Xrotation Yrotation
                JOINT Head
                {
                    OFFSET -0.000000 0.149025 -0.021289
                    CHANNELS 3 Zrotation Xrotation Yrotation
                    End Site
                    {
                        OFFSET -0.000000 0.198396 0.000000
                    }
                }
            }
            JOINT LeftShoulder
            {
                OFFSET 0.039707 0.224479 -0.002125
                CHANNELS 3 Zrotation Xrotation Yrotation
                JOINT LeftArm
                {
                    OFFSET 0.116942 0.000000 0.000000
                    CHANNELS 3 Zrotation Xrotation Yrotation
                    JOINT LeftForeArm
                    {
                        OFFSET 0.282002 0.000000 0.000000
                        CHANNELS 3 Zrotation Xrotation Yrotation
                        JOINT LeftHand
                        {
                            OFFSET 0.358743 0.000000 0.000000
                            CHANNELS 3 Zrotation Xrotation Yrotation
                            End Site
                            {
                                OFFSET 0.148797 0.000000 0.000000
                            }
                        }
                    }
                }
            }
            JOINT RightShoulder
            {
                OFFSET -0.039404 0.224479 -0.002125
                CHANNELS 3 Zrotation Xrotation Yrotation
                JOINT RightArm
                {
                    OFFSET -0.116942 0.000000 0.000000
                    CHANNELS 3 Zrotation Xrotation Yrotation
                    JOINT RightForeArm
                    {
                        OFFSET -0.282002 0.000000 0.000000
                        CHANNELS 3 Zrotation Xrotation Yrotation
                        JOINT RightHand
                        {
                            OFFSET -0.358743 0.000000 0.000000
                            CHANNELS 3 Zrotation Xrotation Yrotation
                            End Site
                            {
                                OFFSET -0.148797 0.000000 0.000000
                            }
                        }
                    }
                }
            }
        }
    }
    JOINT LeftUpLeg
    {
        OFFSET 0.099198 0.000000 0.000000
        CHANNELS 3 Zrotation Xrotation Yrotation
        JOINT LeftLeg
        {
            OFFSET -0.000000 -0.332973 0.000000
            CHANNELS 3 Zrotation Xrotation Yrotation
            JOINT LeftFoot
            {
                OFFSET -0.000000 -0.491254 0.000000
                CHANNELS 3 Zrotation Xrotation Yrotation
                JOINT LeftToeBase
                {
                    OFFSET -0.000000 -0.064479 0.148797
                    CHANNELS 3 Zrotation Xrotation Yrotation
                    End Site
                    {
                        OFFSET -0.000000 0.000000 0.039679
                    }
                }
            }
        }
    }
    JOINT RightUpLeg
    {
        OFFSET -0.099198 0.000000 0.000000
        CHANNELS 3 Zrotation Xrotation Yrotation
        JOINT RightLeg
        {
            OFFSET -0.000000 -0.332973 0.000000
            CHANNELS 3 Zrotation Xrotation Yrotation
            JOINT RightFoot
            {
                OFFSET -0.000000 -0.491254 0.000000
                CHANNELS 3 Zrotation Xrotation Yrotation
                JOINT RightToeBase
                {
                    OFFSET -0.000000 -0.064479 0.148797
                    CHANNELS 3 Zrotation Xrotation Yrotation
                    End Site
                    {
                        OFFSET -0.000000 0.000000 0.039679
                    }
                }
            }
        }
    }
}
MOTION
Frames:    8
Frame Time:    0.010000
-0.410766    0.875670    0.505016    -0.911076    3.314182    -46.055187    -5.531997    -1.756464    -5.434300    -1.785285    11.087543    -1.608259    13.921165    10.241581    16.726994    -3.253294    -15.750315    15.724406    -1.423913    18.137074    -9.954324    -9.102695    23.935175    -46.253620    44.203835    8.788766    -57.084160    32.786530    27.487772    -20.004988    6.265277    23.141953    8.561862    35.573093    30.844610    22.761406    -2.721193    3.265065    56.843937    14.365544    5.523479    6.279716    16.345465    -11.364938    10.103858    -11.014781    25.031321    2.755785    3.305688    -16.753202    24.874367    0.000000    0.000000    0.000000    -8.661303    -9.656887    -6.369454    1.735958    20.034895    -7.253820    4.947545    -7.270566    2.863984    0.000000    0.000000    0.000000    
-0.414232    0.875420    0.503854    -1.242469    3.235259    -46.145138    -5.358753    -1.608644    -5.191901    -1.823660    10.962663    -1.529088    13.946634    10.621514    16.535940    -3.200443    -15.946916    15.581997    -1.440152    18.279074    -10.139020    -10.183528    21.028629    -45.154953    41.492256    9.603764    -60.404762    30.046762    29.591957    -16.032768    6.283482    23.309179    8.644109    35.616631    31.151409    22.934982    -2.556473    2.552620    56.594353    14.290091    4.781230    6.825929    17.285753    -11.110757    10.362834    -11.779925    25.369127    7.202439    1.816772    -16.734581    20.212366    0.000000    0.000000    0.000000    -7.863146    -8.840854    -6.150333    1.220574    19.284700    -7.626278    4.745420    -7.366541    3.164488    0.000000    0.000000    0.000000    
-0.414204    0.874539    0.505732    -0.828935    2.713912    -45.994419    -5.179424    -1.671414    -5.231573    -2.610830    10.900632    -1.467988    13.843355    10.516686    16.423864    -2.982679    -15.778769    15.521087    -1.665173    18.326088    -10.133105    -9.993309    20.717760    -45.260334    41.137634    9.419286    -60.586567    27.998926    30.054487    -13.812458    6.281844    23.261646    8.680892    35.730526    31.364807    23.029039    -2.564501    2.167740    56.387543    14.585669    4.446073    7.080317    16.290934    -11.097252    9.463146    -11.746866    25.286703    7.927827    1.738347    -16.809753    20.162779    0.000000    0.000000    0.000000    -8.793491    -8.433076    -6.411491    1.479032    19.055847    -7.800516    4.991463    -7.939697    3.335844    0.000000    0.000000    0.000000    
-0.417194    0.874308    0.504818    -1.029509    2.593501    -46.016575    -4.980718    -1.621822    -5.068713    -2.721733    11.004279    -1.402453    13.699826    10.503919    16.291227    -2.832061    -15.843186    15.428485    -1.872078    18.270836    -10.048106    -9.652756    23.071381    -45.813843    43.759922    7.596714    -58.105473    25.986712    29.197336    -13.244837    6.285570    23.079014    8.681956    35.926785    31.506254    23.185965    -2.215960    1.698158    56.136120    14.364295    3.814735    7.427951    16.749924    -10.851224    9.523929    -12.068826    25.464909    8.151663    1.487544    -16.766327    19.908321    0.000000    0.000000    0.000000    -8.242693    -7.907125    -5.819392    1.196680    18.691397    -8.006250    5.164230    -8.194496    2.955921    0.000000    0.000000    0.000000    
-0.418735    0.874003    0.503940    -0.986955    2.561398    -46.086815    -4.677855    -1.670883    -4.921849    -3.008242    11.022893    -1.326157    13.521648    10.322777    16.227575    -2.679744    -15.786485    15.391975    -2.091450    18.150227    -9.900323    -10.141920    20.288082    -45.298714    41.367073    9.196824    -60.842712    25.423407    30.845602    -11.554715    6.332095    22.960487    8.630177    35.965702    31.525276    23.400457    -2.444650    1.668395    55.887157    15.189291    3.972793    7.566012    16.702803    -10.758998    9.296726    -12.017282    25.430017    3.599874    2.863571    -16.796667    24.923639    0.000000    0.000000    0.000000    -8.032088    -8.070277    -5.199801    1.130966    18.748110    -7.891470    4.875627    -8.172394    2.384815    0.000000    0.000000    0.000000    
-0.420210    0.873898    0.503135    -0.980284    2.528940    -46.114727    -4.352503    -1.766159    -4.855551    -3.266350    11.132432    -1.276386    13.277680    10.118001    16.175711    -2.443157    -15.619261    15.394276    -2.302367    18.093464    -9.758760    -10.332567    19.905424    -45.448818    42.457726    10.262980    -60.338345    29.446320    31.071100    -14.869296    6.230633    22.910799    8.723708    35.990368    31.560801    23.735138    -2.500921    1.349426    55.591511    15.513819    3.759694    8.019079    16.862778    -10.772300    9.094685    -12.224590    25.497034    3.844853    2.506692    -16.746107    24.971310    0.000000    0.000000    0.000000    -7.885145    -8.106008    -4.176095    1.353492    19.060062    -8.004501    4.381766    -8.802343    1.412030    0.000000    0.000000    0.000000    
-0.420637    0.873890    0.502545    -0.884493    2.539175    -46.160717    -3.900808    -1.634671    -4.749471    -3.598787    10.679065    -1.226750    13.132288    10.261635    16.054993    -2.474477    -15.583927    15.286862    -2.557142    18.166040    -9.747579    -10.640205    19.622032    -45.335361    41.935886    9.906638    -60.655636    27.056063    31.395887    -12.391383    6.203078    23.017801    8.753919    35.983799    31.526554    23.928955    -2.571593    1.213017    55.341141    16.412233    3.754513    8.273850    16.808010    -10.909330    8.658927    -12.357969    25.422443    4.288905    2.457671    -16.604296    25.113043    0.000000    0.000000    0.000000    -8.020116    -8.506236    -3.015564    1.939497    19.328342    -8.294354    3.979693    -8.657562    0.568082    0.000000    0.000000    0.000000    
-0.423335    0.874180    0.501508    -1.061984    2.557904    -46.196087    -3.553445    -2.028377    -4.895422    -3.771703    11.403518    -1.232651    12.688715    10.117825    16.157434    -2.272320    -15.686165    15.454151    -2.666694    17.912970    -9.329923    -11.263359    19.341299    -45.041756    41.871105    9.405068    -61.028435    25.517220    31.503719    -11.069138    5.778788    22.776619    9.293576    36.158478    31.345654    24.278004    -2.544426    1.100013    55.115280    17.114012    3.694723    8.418245    17.230896    -10.607111    8.586330    -12.593408    25.262901    4.335219    2.352401    -16.500626    25.154512    0.000000    0.000000    0.000000    -7.666924    -8.357265    -1.687725    2.337266    19.548996    -8.926598    3.823662    -9.045860    -0.292289    0.000000    0.000000    0.000000    
